# xmcd CD database file
#
# Track frame offsets:
#	150
#	12815
#	27317
#	42930
#	62050
#	75205
#	88480
#	108240
#	122825
#	135035
#	152365
#	165720
#
# Disc length: 2385 seconds
#
# Revision: 3
# Processed by: cddbd v1.5PL3 Copyright (c) Steve Scherf et al.
# Submitted via: CDex 1.51
#
DISCID=84094f0c
DTITLE=Emerson Drive - Emerson Drive
DYEAR=2002
DGENRE=Country
TTITLE0=Fall Into Me
TTITLE1=Evidence
TTITLE2=Passionate Desperate Love
TTITLE3=Only God
TTITLE4=Say My Name
TTITLE5=I Should Be Sleeping
TTITLE6=Light Of Day
TTITLE7=Looking Over My Shoulder
TTITLE8=I See Heaven
TTITLE9=How Lucky I Am
TTITLE10=Hollywood Kiss
TTITLE11=It's All About You
EXTD=YEAR: 2002
EXTT0=
EXTT1=
EXTT2=
EXTT3=
EXTT4=
EXTT5=
EXTT6=
EXTT7=
EXTT8=
EXTT9=
EXTT10=
EXTT11=
PLAYORDER=
